<svg width="41" height="41" viewBox="0 0 41 41" fill="none" xmlns="http://www.w3.org/2000/svg">
<path fill-rule="evenodd" clip-rule="evenodd" d="M29.844 29.844C30.3444 29.3437 31.1556 29.3437 31.656 29.844L36.781 34.969C37.2813 35.4694 37.2813 36.2806 36.781 36.781C36.2806 37.2813 35.4694 37.2813 34.969 36.781L29.844 31.656C29.3437 31.1556 29.3437 30.3444 29.844 29.844Z" fill="#006EE6"/>
<path fill-rule="evenodd" clip-rule="evenodd" d="M19.6458 6.40625C12.3338 6.40625 6.40625 12.3338 6.40625 19.6458C6.40625 26.9579 12.3338 32.8854 19.6458 32.8854C26.9579 32.8854 32.8854 26.9579 32.8854 19.6458C32.8854 12.3338 26.9579 6.40625 19.6458 6.40625ZM3.84375 19.6458C3.84375 10.9186 10.9186 3.84375 19.6458 3.84375C28.3731 3.84375 35.4479 10.9186 35.4479 19.6458C35.4479 28.3731 28.3731 35.4479 19.6458 35.4479C10.9186 35.4479 3.84375 28.3731 3.84375 19.6458Z" fill="#006EE6"/>
</svg>
